<?xml version="1.0" encoding="UTF-8"?>
<svg width="256px" height="82px" viewBox="0 0 256 82" version="1.1" xmlns="http://www.w3.org/2000/svg" xmlns:xlink="http://www.w3.org/1999/xlink">
    <!-- Generator: Sketch 52.6 (67491) - http://www.bohemiancoding.com/sketch -->
    <title>logo</title>
    <desc>Created with Sketch.</desc>
    <defs>
        <polygon id="path-1" points="0.0304424212 0.0131456767 131.106161 0.0131456767 131.106161 17.5892857 0.0304424212 17.5892857"></polygon>
        <polygon id="path-3" points="0.124500201 0.0958424644 4.30955741 0.0958424644 4.30955741 16.4053914 0.124500201 16.4053914"></polygon>
    </defs>
    <g id="Sign-Up" stroke="none" stroke-width="1" fill="none" fill-rule="evenodd">
        <g id="signup/email/username@2x-copy" transform="translate(-592.000000, -48.000000)">
            <g id="logo" transform="translate(592.000000, 48.000000)">
                <g id="Group-3" transform="translate(59.000000, 64.000000)">
                    <mask id="mask-2" fill="white">
                        <use xlink:href="#path-1"></use>
                    </mask>
                    <g id="Clip-2"></g>
                    <path d="M129.333815,7.76786059 C129.263389,7.05441447 129.100791,6.4844599 128.845373,6.05768828 C128.37251,5.26524467 127.583863,4.86902287 126.479108,4.86902287 C125.687216,4.86902287 125.023194,5.14181109 124.486395,5.68738753 C123.950245,6.23296397 123.665943,6.92666071 123.634137,7.76786059 L129.333815,7.76786059 Z M128.701599,3.92259586 C129.384769,4.24876911 129.905341,4.67091197 130.262991,5.18902444 C130.607983,5.68306736 130.837762,6.25888503 130.952651,6.9174032 C131.054883,7.36855294 131.106161,8.08786216 131.106161,9.07563941 L123.586104,9.07563941 C123.618234,10.0692798 123.863916,10.8663521 124.323473,11.4668565 C124.783355,12.0673609 125.495733,12.3676131 126.460284,12.3676131 C127.360575,12.3676131 128.07912,12.0840244 128.61527,11.5171557 C128.921642,11.1878966 129.138763,10.807104 129.266634,10.3741607 L130.962387,10.3741607 C130.9176,10.733661 130.769282,11.1348202 130.51711,11.5767124 C130.264613,12.0186046 129.981934,12.3799565 129.669071,12.6601507 C129.145578,13.1480219 128.497135,13.477281 127.724391,13.6479279 C127.309621,13.7454405 126.840003,13.7941967 126.316186,13.7941967 C125.039097,13.7941967 123.956736,13.3507616 123.068778,12.4635827 C122.181144,11.5767124 121.73749,10.3343534 121.73749,8.73712281 C121.73749,7.16427036 122.18439,5.88704135 123.078514,4.90574436 C123.972314,3.92413878 125.141329,3.4331817 126.584261,3.4331817 C127.312542,3.4331817 128.018105,3.59642262 128.701599,3.92259586 Z M111.401022,3.65289348 L113.039331,3.65289348 L113.039331,5.04275564 C113.524527,4.46971523 114.038608,4.05837281 114.581574,3.80811122 C115.124539,3.55815821 115.72787,3.4331817 116.391892,3.4331817 C117.847805,3.4331817 118.831829,3.91796711 119.34234,4.88722932 C119.623397,5.41768515 119.763925,6.17680169 119.763925,7.16427036 L119.763925,13.4467312 L118.010727,13.4467312 L118.010727,7.27412625 C118.010727,6.67670771 117.918232,6.19500815 117.733241,5.82933615 C117.426869,5.21957425 116.871246,4.9146933 116.066372,4.9146933 C115.657444,4.9146933 115.322188,4.95419204 115.060604,5.03349812 C114.58774,5.16773214 114.172646,5.4358916 113.81532,5.83828509 C113.527773,6.16137249 113.341159,6.49526034 113.254829,6.83964004 C113.1685,7.18401974 113.12566,7.67651974 113.12566,8.31652287 L113.12566,13.4467312 L111.401022,13.4467312 L111.401022,3.65289348 Z M107.042368,1.87853571 L108.795242,1.87853571 L108.795242,0.0131456767 L107.042368,0.0131456767 L107.042368,1.87853571 Z M107.042368,13.4467312 L108.795242,13.4467312 L108.795242,3.69856391 L107.042368,3.69856391 L107.042368,13.4467312 Z M102.070647,5.81082112 C101.547154,5.22574593 100.879563,4.93289975 100.068523,4.93289975 C98.8553694,4.93289975 98.024856,5.47569893 97.577956,6.56068014 C97.3416865,7.13989223 97.2235517,7.89900877 97.2235517,8.83772118 C97.2235517,9.94121742 97.4581985,10.781183 97.9274922,11.3570006 C98.3971103,11.9334355 99.0277033,12.2213443 99.8195957,12.2213443 C101.058388,12.2213443 101.930119,11.6881112 102.434788,10.6210279 C102.71552,10.0174377 102.856373,9.31324906 102.856373,8.50846209 C102.856373,7.29541855 102.59414,6.39620489 102.070647,5.81082112 Z M101.860017,4.04602945 C102.185861,4.25926096 102.517872,4.5703136 102.856373,4.97857018 L102.856373,3.74423434 L104.446324,3.74423434 L104.446324,12.6512018 C104.446324,13.8947951 104.254842,14.8764007 103.871553,15.5957099 C103.156578,16.924781 101.805818,17.5894709 99.8195957,17.5894709 C98.7145164,17.5894709 97.7856655,17.3530956 97.0320695,16.8806535 C96.278149,16.4082115 95.8568882,15.6688443 95.7673135,14.6628606 L97.5205114,14.6628606 C97.6032706,15.1019756 97.7694382,15.4401836 98.0186896,15.6781018 C98.4081449,16.0437738 99.0215369,16.2267641 99.8578922,16.2267641 C101.179768,16.2267641 102.045333,15.781786 102.453936,14.8915213 C102.696697,14.3672372 102.80834,13.4316106 102.789192,12.0840244 C102.4442,12.5839305 102.029105,12.9557741 101.543909,13.199864 C101.058388,13.4436454 100.416436,13.565536 99.6183772,13.565536 C98.5071314,13.565536 97.535116,13.1890636 96.7013571,12.4361187 C95.8682473,11.6831739 95.4515302,10.4380376 95.4515302,8.7007099 C95.4515302,7.06058615 95.8714928,5.78057989 96.7107689,4.85976535 C97.5506942,3.9392594 98.5645761,3.47916071 99.7527392,3.47916071 C100.557289,3.47916071 101.259607,3.6680141 101.860017,4.04602945 Z M85.2205399,3.65289348 L86.8585239,3.65289348 L86.8585239,5.04275564 C87.3437203,4.46971523 87.8581258,4.05837281 88.4007669,3.80811122 C88.9437324,3.55815821 89.5470636,3.4331817 90.2114094,3.4331817 C91.667323,3.4331817 92.6510222,3.91796711 93.1618577,4.88722932 C93.4429146,5.41768515 93.583443,6.17680169 93.583443,7.16427036 L93.583443,13.4467312 L91.8302452,13.4467312 L91.8302452,7.27412625 C91.8302452,6.67670771 91.7377495,6.19500815 91.5524337,5.82933615 C91.2460622,5.21957425 90.6904394,4.9146933 89.8855651,4.9146933 C89.4769616,4.9146933 89.1417055,4.95419204 88.8801214,5.03349812 C88.4072578,5.16773214 87.9921634,5.4358916 87.6345136,5.83828509 C87.3472903,6.16137249 87.1603518,6.49526034 87.0740225,6.83964004 C86.9876933,7.18401974 86.9448532,7.67651974 86.9448532,8.31652287 L86.9448532,13.4467312 L85.2205399,13.4467312 L85.2205399,3.65289348 Z M81.3311798,7.76786059 C81.2610779,7.05441447 81.0981558,6.4844599 80.842738,6.05768828 C80.3701989,5.26524467 79.5812274,4.86902287 78.4764726,4.86902287 C77.6845802,4.86902287 77.020559,5.14181109 76.4840843,5.68738753 C75.9476097,6.23296397 75.6633073,6.92666071 75.6315018,7.76786059 L81.3311798,7.76786059 Z M80.6992887,3.92259586 C81.3824581,4.24876911 81.9027055,4.67091197 82.2603552,5.18902444 C82.6053477,5.68306736 82.8354509,6.25888503 82.9500156,6.9174032 C83.0522477,7.36855294 83.1035259,8.08786216 83.1035259,9.07563941 L75.583469,9.07563941 C75.6152745,10.0692798 75.8612804,10.8663521 76.3211622,11.4668565 C76.781044,12.0673609 77.493098,12.3676131 78.4573244,12.3676131 C79.3579398,12.3676131 80.0764847,12.0840244 80.6126349,11.5171557 C80.9193309,11.1878966 81.1364522,10.807104 81.2643234,10.3741607 L82.959752,10.3741607 C82.9152892,10.733661 82.7666471,11.1348202 82.5141503,11.5767124 C82.261978,12.0186046 81.9796229,12.3799565 81.6664359,12.6601507 C81.1429431,13.1480219 80.4948246,13.477281 79.7220804,13.6479279 C79.3066615,13.7454405 78.8373679,13.7941967 78.3138751,13.7941967 C77.0364617,13.7941967 75.953776,13.3507616 75.0661425,12.4635827 C74.178509,11.5767124 73.7348546,10.3343534 73.7348546,8.73712281 C73.7348546,7.16427036 74.1817545,5.88704135 75.0758789,4.90574436 C75.9700033,3.92413878 77.1386937,3.4331817 78.5819501,3.4331817 C79.3099069,3.4331817 80.0154701,3.59642262 80.6992887,3.92259586 Z M60.074386,10.3741607 C60.1256643,10.922823 60.2691136,11.3434229 60.5057077,11.6362691 C60.9399504,12.1664164 61.6932218,12.4317986 62.7664956,12.4317986 C63.4048778,12.4317986 63.9669915,12.2991075 64.4521879,12.0340338 C64.9377088,11.7686516 65.1801448,11.3588521 65.1801448,10.8040182 C65.1801448,10.3834182 64.9857417,10.0631081 64.5959618,9.84370489 C64.347035,9.70947086 63.8550232,9.55425313 63.1205754,9.37743452 L61.750991,9.04817544 C60.8756902,8.84080702 60.2308172,8.60936905 59.8157228,8.35293578 C59.0751087,7.90826629 58.704477,7.29233271 58.704477,6.50606078 C58.704477,5.57938315 59.0540132,4.82952412 59.7534099,4.25648371 C60.4528067,3.68313471 61.3930167,3.3967688 62.5746889,3.3967688 C64.1201773,3.3967688 65.2346685,3.82940351 65.9181625,4.6952901 C66.3459142,5.24395238 66.5532992,5.83519925 66.5406419,6.46933929 L64.9120697,6.46933929 C64.8799396,6.09749561 64.7426567,5.75897901 64.4998962,5.45409806 C64.1042745,5.02146335 63.4175351,4.80483741 62.4406514,4.80483741 C61.7892874,4.80483741 61.2956529,4.92395081 60.9603968,5.16156046 C60.6251407,5.3994787 60.4573504,5.71330858 60.4573504,6.10335871 C60.4573504,6.53043891 60.6780417,6.87173277 61.1184507,7.12785746 C61.374193,7.27998935 61.750991,7.41422337 62.2488447,7.52994236 L63.388975,7.79532456 C64.6277673,8.08199906 65.4582807,8.35941604 65.8795415,8.6275755 C66.5500537,9.04817544 66.8853098,9.70947086 66.8853098,10.6117704 C66.8853098,11.4838286 66.5390191,12.2364649 65.8461133,12.8706049 C65.1532074,13.504745 64.0977836,13.8216607 62.6801664,13.8216607 C61.1538262,13.8216607 60.0727633,13.4908587 59.4373021,12.8295633 C58.8021654,12.1679593 58.4620411,11.3495946 58.4172538,10.3741607 L60.074386,10.3741607 Z M50.2649811,10.3741607 C50.3159348,10.922823 50.4600333,11.3434229 50.6959783,11.6362691 C51.1305454,12.1664164 51.8838169,12.4317986 52.9567662,12.4317986 C53.5954728,12.4317986 54.1575866,12.2991075 54.642783,12.0340338 C55.1279794,11.7686516 55.3710644,11.3588521 55.3710644,10.8040182 C55.3710644,10.3834182 55.1760122,10.0631081 54.7865569,9.84370489 C54.5373055,9.70947086 54.0459428,9.55425313 53.311495,9.37743452 L51.9415861,9.04817544 C51.0666099,8.84080702 50.4217368,8.60936905 50.0063179,8.35293578 C49.2657037,7.90826629 48.8950721,7.29233271 48.8950721,6.50606078 C48.8950721,5.57938315 49.2449328,4.82952412 49.9443296,4.25648371 C50.6434018,3.68313471 51.5839363,3.3967688 52.765284,3.3967688 C54.3107724,3.3967688 55.4252636,3.82940351 56.108433,4.6952901 C56.5361848,5.24395238 56.7438942,5.83519925 56.731237,6.46933929 L55.1026648,6.46933929 C55.0708593,6.09749561 54.9335763,5.75897901 54.6908158,5.45409806 C54.2948696,5.02146335 53.6084547,4.80483741 52.6312465,4.80483741 C51.979558,4.80483741 51.4865725,4.92395081 51.1513164,5.16156046 C50.8157358,5.3994787 50.64827,5.71330858 50.64827,6.10335871 C50.64827,6.53043891 50.8683122,6.87173277 51.3093703,7.12785746 C51.5647881,7.27998935 51.9415861,7.41422337 52.4394397,7.52994236 L53.5795701,7.79532456 C54.8183624,8.08199906 55.6488758,8.35941604 56.0701366,8.6275755 C56.7406488,9.04817544 57.0759049,9.70947086 57.0759049,10.6117704 C57.0759049,11.4838286 56.7296142,12.2364649 56.0367084,12.8706049 C55.3438025,13.504745 54.2887032,13.8216607 52.8704369,13.8216607 C51.3440968,13.8216607 50.2633584,13.4908587 49.6278972,12.8295633 C48.9924359,12.1679593 48.6523117,11.3495946 48.6078489,10.3741607 L50.2649811,10.3741607 Z M45.3507045,7.76786059 C45.2806026,7.05441447 45.1176804,6.4844599 44.8622627,6.05768828 C44.3897236,5.26524467 43.6010767,4.86902287 42.4963218,4.86902287 C41.7041049,4.86902287 41.0400836,5.14181109 40.503609,5.68738753 C39.9671343,6.23296397 39.6831565,6.92666071 39.6510265,7.76786059 L45.3507045,7.76786059 Z M44.7184888,3.92259586 C45.4019828,4.24876911 45.9222301,4.67091197 46.2802045,5.18902444 C46.6248724,5.68306736 46.854651,6.25888503 46.9698648,6.9174032 C47.0717723,7.36855294 47.122726,8.08786216 47.122726,9.07563941 L39.6033182,9.07563941 C39.6351237,10.0692798 39.8808051,10.8663521 40.3406869,11.4668565 C40.8005686,12.0673609 41.5126227,12.3676131 42.4768491,12.3676131 C43.3774644,12.3676131 44.0956849,12.0840244 44.6324841,11.5171557 C44.9388556,11.1878966 45.1559769,10.807104 45.2835235,10.3741607 L46.9792767,10.3741607 C46.9344893,10.733661 46.7861718,11.1348202 46.5339995,11.5767124 C46.2818272,12.0186046 45.9991476,12.3799565 45.6862851,12.6601507 C45.1621432,13.1480219 44.5140247,13.477281 43.7416051,13.6479279 C43.3261861,13.7454405 42.8568925,13.7941967 42.3333997,13.7941967 C41.0559864,13.7941967 39.9736253,13.3507616 39.0859918,12.4635827 C38.1980337,11.5767124 37.7543792,10.3343534 37.7543792,8.73712281 C37.7543792,7.16427036 38.2012792,5.88704135 39.0954036,4.90574436 C39.989528,3.92413878 41.1582184,3.4331817 42.6014748,3.4331817 C43.3294316,3.4331817 44.0353193,3.59642262 44.7184888,3.92259586 Z M35.297241,4.17409179 C36.0219523,4.71041071 36.4578177,5.63400251 36.6048371,6.94486717 L34.9282321,6.94486717 C34.8263246,6.34127694 34.592976,5.83982801 34.2291598,5.44052036 C33.8650192,5.04121272 33.2808362,4.8415589 32.4762865,4.8415589 C31.3776981,4.8415589 30.5919721,5.35380827 30.119433,6.37799843 C29.8130615,7.0423797 29.6598757,7.86228728 29.6598757,8.83772118 C29.6598757,9.81932675 29.8769971,10.645406 30.3112397,11.315959 C30.7454823,11.9865119 31.4286518,12.3219427 32.3610727,12.3219427 C33.0763722,12.3219427 33.6430296,12.1133399 34.0613695,11.6955172 C34.4797094,11.2780031 34.7685554,10.7061971 34.9282321,9.98071617 L36.6048371,9.98071617 C36.4130303,11.2795461 35.9343249,12.2290589 35.1680716,12.8295633 C34.4014938,13.4300677 33.4213647,13.7303199 32.2270351,13.7303199 C30.8856862,13.7303199 29.8159824,13.2625066 29.0179236,12.3265714 C28.2195403,11.3906363 27.8203486,10.2217202 27.8203486,8.81951472 C27.8203486,7.10039348 28.2581613,5.76206485 29.1328129,4.80483741 C30.0077891,3.84791855 31.1222803,3.36930482 32.4762865,3.36930482 C33.6319951,3.36930482 34.5725296,3.63746429 35.297241,4.17409179 Z M25.1000035,4.63110464 C26.0132761,5.4726131 26.4699124,6.71003477 26.4699124,8.34398684 C26.4699124,9.92301096 26.0674753,11.2277039 25.2626011,12.2580658 C24.4580514,13.288119 23.2095226,13.8034543 21.5170149,13.8034543 C20.105564,13.8034543 18.9849065,13.3476758 18.1550422,12.4361187 C17.3245288,11.5248703 16.9094344,10.3010263 16.9094344,8.76458678 C16.9094344,7.11859994 17.3469225,5.80773528 18.2218987,4.83230138 C19.0968749,3.85686748 20.2717316,3.36930482 21.747118,3.36930482 C23.0689942,3.36930482 24.1867308,3.78990476 25.1000035,4.63110464 Z M24.0315978,11.1468549 C24.4564286,10.3207757 24.6686818,9.40181266 24.6686818,8.38965727 C24.6686818,7.47532299 24.515496,6.73163565 24.2091245,6.15828665 C23.7236036,5.25598716 22.8872484,4.80483741 21.6994098,4.80483741 C20.6452841,4.80483741 19.8790309,5.18902444 19.4003254,5.95708991 C18.9212954,6.72546397 18.6817804,7.6521416 18.6817804,8.73712281 C18.6817804,9.77982801 18.9212954,10.6484919 19.4003254,11.3434229 C19.8790309,12.038354 20.6391178,12.3858195 21.679937,12.3858195 C22.8229883,12.3858195 23.606767,11.9729342 24.0315978,11.1468549 Z M11.123427,3.65289348 L12.761411,3.65289348 L12.761411,5.34455075 C12.8957731,5.01529167 13.2245383,4.6144411 13.7480311,4.14199906 C14.2718485,3.66955702 14.8755041,3.4331817 15.5589982,3.4331817 C15.5904791,3.4331817 15.6450029,3.43626754 15.7215957,3.44243922 C15.7981886,3.4486109 15.9289807,3.46064568 16.114621,3.47916071 L16.114621,5.21648841 C16.0120645,5.19828195 15.9179461,5.1859386 15.8316169,5.1800755 C15.7456121,5.17390382 15.6514938,5.17081798 15.5489372,5.17081798 C14.6807765,5.17081798 14.0131852,5.43743452 13.5468125,5.97097619 C13.0807644,6.50451786 12.8477403,7.11859994 12.8477403,7.81353102 L12.8477403,13.4467312 L11.123427,13.4467312 L11.123427,3.65289348 Z M0.0304424212,3.69856391 L1.70672286,3.69856391 L1.70672286,4.99708521 C2.05171534,4.55210714 2.42851332,4.20741886 2.83711682,3.96363753 C3.41837883,3.59796554 4.10187285,3.41497525 4.88727434,3.41497525 C6.04947381,3.41497525 7.0364184,3.84020395 7.84745903,4.69066134 C8.65849965,5.54111873 9.06385769,6.75601378 9.06385769,8.33472932 C9.06385769,10.4685874 8.47935022,11.9926836 7.31098438,12.9073264 C6.5700457,13.4862299 5.7077268,13.7759903 4.72435221,13.7759903 C3.95160802,13.7759903 3.30348952,13.6142923 2.77999671,13.2912049 C2.47297613,13.1085232 2.13155367,12.7943847 1.75475568,12.3494066 L1.75475568,17.3515526 L0.0304424212,17.3515526 L0.0304424212,3.69856391 Z M6.50124193,11.3755157 C7.03479567,10.7321181 7.30124799,9.77057049 7.30124799,8.49025564 C7.30124799,7.71015539 7.18311322,7.03929386 6.94651914,6.4785968 C6.49994375,5.3994787 5.6824122,4.85976535 4.49457359,4.85976535 C3.30024406,4.85976535 2.48303706,5.42971992 2.04197895,6.56993766 C1.80603396,7.17969956 1.68757465,7.95393672 1.68757465,8.89264912 C1.68757465,9.64867982 1.80603396,10.2917688 2.04197895,10.8222246 C2.48920344,11.83438 3.30673498,12.3401491 4.49457359,12.3401491 C5.2991233,12.3401491 5.96801274,12.0186046 6.50124193,11.3755157 Z" id="Fill-1" fill="#0092ED" mask="url(#mask-2)"></path>
                </g>
                <path d="M227.044202,15.97924 L241.235717,15.97924 C246.054141,15.97924 249.790707,17.7341387 252.446061,21.2436055 C254.815354,24.4100243 256,28.466451 256,33.4122246 C256,37.2320209 255.300525,40.6843131 253.901253,43.7694315 C251.436283,49.2211844 247.19903,51.9473913 241.188202,51.9473913 L227.044202,51.9473913 L227.044202,15.97924 Z M240.281859,47.7848775 C241.887677,47.7848775 243.207758,47.6133535 244.241131,47.270636 C246.085495,46.6341135 247.596283,45.4096503 248.773172,43.5979075 C249.711192,42.1450761 250.387071,40.2844209 250.800162,38.0152808 C251.038707,36.6606048 251.158303,35.4037537 251.158303,34.2447274 C251.158303,29.788739 250.295596,26.3281847 248.570182,23.8630643 C246.845091,21.3982745 244.066263,20.1662101 240.23402,20.1662101 L231.814465,20.1662101 L231.814465,47.7848775 L240.281859,47.7848775 Z M214.331152,51.9473913 L219.125333,51.9473913 L219.125333,15.97924 L214.331152,15.97924 L214.331152,51.9473913 Z M199.936646,44.0265522 C201.804929,40.9493655 202.739394,37.4114767 202.739394,33.4122246 C202.739394,29.1846044 201.662061,25.7812247 199.507394,23.2020856 C197.352727,20.6232769 194.407111,19.3337073 190.670222,19.3337073 C187.044848,19.3337073 184.087273,20.6110488 181.797495,23.1654012 C179.507717,25.7200842 178.362828,29.4866717 178.362828,34.4651638 C178.362828,38.4478914 179.344808,41.8063245 181.308444,44.5404632 C183.272404,47.2746019 186.456566,48.6418365 190.861253,48.6418365 C195.043232,48.6418365 198.06804,47.1034084 199.936646,44.0265522 Z M204.122505,21.1209939 C206.444283,24.3039372 207.604687,28.3765579 207.604687,33.338856 C207.604687,38.7093085 206.277172,43.1735591 203.621818,46.7319383 C200.505212,50.9106461 196.061091,53 190.288485,53 C184.897939,53 180.660687,51.1717327 177.575758,47.5155287 C174.824727,43.9895374 173.449374,39.533549 173.449374,34.1469025 C173.449374,29.2824293 174.625939,25.120246 176.979394,21.6596916 C180.000646,17.2195667 184.468687,15 190.384162,15 C196.569859,15 201.149091,17.040111 204.122505,21.1209939 Z M142.823758,47.9071586 L164.314182,20.2640349 L144.397899,20.2640349 L144.397899,15.97924 L170.42004,15.97924 L170.42004,20.1662101 L148.810667,47.6622659 L170.42004,47.6622659 L170.42004,51.9473913 L142.823758,51.9473913 L142.823758,47.9071586 Z M113.295515,15.97924 L138.840566,15.97924 L138.840566,20.386316 L117.922586,20.386316 L117.922586,31.3066768 L137.266424,31.3066768 L137.266424,35.4691906 L117.922586,35.4691906 L117.922586,47.6622659 L139.198384,47.6622659 L139.198384,51.9473913 L113.295515,51.9473913 L113.295515,15.97924 Z M78.1378586,15.97924 L94.3573333,15.97924 C97.0288485,15.97924 99.2307071,16.3791322 100.963879,17.1789165 C104.255677,18.7133787 105.901576,21.5453423 105.901576,25.6751376 C105.901576,27.8299284 105.468121,29.5927588 104.601535,30.9639593 C103.734949,32.3348292 102.522505,33.4366808 100.963879,34.2691836 C102.331798,34.8405998 103.36097,35.5914716 104.05301,36.5217993 C104.744727,37.4524574 105.130343,38.9621329 105.209535,41.0514868 L105.376646,45.8749793 C105.424162,47.2461798 105.535677,48.2664005 105.710545,48.9356415 C105.996929,50.0781433 106.505697,50.8128212 107.237172,51.1393448 L107.237172,51.9473913 L101.417374,51.9473913 C101.258343,51.6370618 101.13099,51.2371696 101.035636,50.7473844 C100.940283,50.2575991 100.860768,49.3110775 100.797091,47.9071586 L100.51103,41.9084457 C100.399515,39.5580052 99.5490909,37.9828928 97.9591111,37.1831085 C97.0524444,36.7422357 95.6295758,36.5217993 93.6895354,36.5217993 L82.8845253,36.5217993 L82.8845253,51.9473913 L78.1378586,51.9473913 L78.1378586,15.97924 Z M93.8563232,32.4574408 C96.0824242,32.4574408 97.8433939,32.000374 99.1395556,31.0862403 C100.435394,30.1721067 101.083475,28.5236256 101.083475,26.1404667 C101.083475,23.5775215 100.177131,21.8312156 98.3641212,20.9005575 C97.3944242,20.4111027 96.0985859,20.1662101 94.4762828,20.1662101 L82.8845253,20.1662101 L82.8845253,32.4574408 L93.8563232,32.4574408 Z M26.6660202,18.5990294 C29.1148283,20.9987128 30.4743434,23.7245893 30.7448889,26.7769892 L26.1174949,26.7769892 C25.5928889,24.4589367 24.5472323,22.6227377 22.9811717,21.2677312 C21.4147879,19.9130552 19.2164848,19.2358825 16.3859394,19.2358825 C12.9357576,19.2358825 10.1488485,20.4805055 8.02618182,22.969421 C5.90351515,25.4589976 4.8420202,29.2744975 4.8420202,34.4162514 C4.8420202,38.6276776 5.79975758,42.0432854 7.71587879,44.6630748 C9.63232323,47.2828641 12.4903434,48.592924 16.2905859,48.592924 C19.7889293,48.592924 22.4523636,47.2134614 24.2808889,44.4548665 C25.2509091,43.0020351 25.974303,41.0924675 26.4513939,38.7255025 L31.0784646,38.7255025 C30.6653737,42.5125803 29.2977778,45.6872614 26.9763232,48.2502066 C24.1936162,51.3349945 20.4408889,52.8773884 15.7181414,52.8773884 C11.6473535,52.8773884 8.22884848,51.6126056 5.4619798,49.0827093 C1.82076768,45.7361738 0,40.5699637 0,33.5837486 C0,28.278733 1.36759596,23.9285012 4.10246465,20.5333838 C7.0600404,16.8444613 11.1385859,15 16.3384242,15 C20.7747879,15 24.2175354,16.1996765 26.6660202,18.5990294 Z" id="Fill-4" fill="#0092ED"></path>
                <path d="M52.5001636,15 C52.2992279,15 52.1002556,15.0090225 51.9006289,15.01604 C55.2458496,22.3483063 56.1775502,24.9945654 56.3277611,33.3005909 C56.3585233,34.997485 55.8771283,36.889866 55.0612767,38.3555173 C54.4774502,39.4034613 52.8833815,40.5443034 51.8387773,40.4540786 C50.6685064,40.3504872 49.2217033,39.1361286 48.5799524,37.9989623 C46.9384315,35.0873756 47.3681199,32.0344367 48.7766339,29.0506701 C49.405949,27.7176826 50.0781348,26.4050793 50.6721062,25.0530444 C51.5121748,23.139611 51.5956254,21.1255936 51.1413927,19.1015512 C50.8304986,17.7167681 50.2240914,16.4683246 49.5928127,15.2352527 C40.7565474,16.6681558 34,24.5227233 34,34 C34,44.493475 42.2822193,53 52.5001636,53 C62.7177807,53 71,44.4931408 71,34 C71,23.5068592 62.7177807,15 52.5001636,15" id="Fill-6" fill="#3C91E6"></path>
                <g id="Group-10" transform="translate(47.000000, 0.000000)">
                    <mask id="mask-4" fill="white">
                        <use xlink:href="#path-3"></use>
                    </mask>
                    <g id="Clip-9"></g>
                    <path d="M3.97027963,15.3865225 C3.12816543,13.409563 2.06260216,11.491044 1.7704463,9.2970196 C1.36702191,6.27581132 2.9895358,3.00213997 2.30459599,0.0954751239 C2.24348951,0.137552303 2.14833364,0.153247759 2.12431667,0.22838558 C0.087737963,6.73532084 -0.0539317901,8.18130645 0.24156821,10.9310167 C0.458329012,12.9507213 1.33570864,14.6625279 2.16566235,16.4053914 C2.86671481,16.2831672 3.5829679,16.2110349 4.30955741,16.1859889 C4.19950494,15.9248433 4.08671636,15.6590223 3.97027963,15.3865225" id="Fill-8" fill="#3C91E6" mask="url(#mask-4)"></path>
                </g>
            </g>
        </g>
    </g>
</svg>