<svg width="27px" height="37px" viewBox="0 0 27 47" version="1.1" xmlns="http://www.w3.org/2000/svg">
  <g>
    <path filltype="none" style="fill:#fff;" d="M13.855702,10.9843519 L13.4295747,10.9843519 C15.806054,15.9909144 16.4733413,17.7992894 16.5740197,23.4718519 C16.5808096,24.6801331 16.2710478,25.8694519 15.6749379,26.9244144 C15.2605173,27.6389769 14.1272996,28.4182894 13.3874302,28.3581644 C12.5562478,28.2864769 11.5283912,27.4586019 11.0741676,26.6816019 C9.90348817,24.6928519 10.2125475,22.6069769 11.2146492,20.5696644 C11.6618487,19.6585394 12.1394859,18.7636019 12.5609305,17.8409144 C13.1294125,16.5607144 13.2464804,15.1292769 12.8934035,13.7755394 C12.6440488,12.8519269 12.2741141,11.9641581 11.7929648,11.1346644 C4.62021179,12.2229269 -0.301090492,18.8482394 0.80075301,25.9325831 C1.90259651,33.0169269 8.61058978,37.8775706 15.7833428,36.7893081 C22.9560958,35.7008144 27.8773981,29.0757331 26.7755546,21.9913894 C25.7945252,15.6840456 20.3164478,11.0171894 13.855702,10.9843519" />
    <path filltype="none" style="fill:#fff;" d="M13.1696838,10.4501413 C12.5258101,9.09964125 11.7110172,7.78845375 11.4885881,6.28764125 C11.1795288,4.22257875 12.4251317,1.98639125 11.898326,-4.625e-05 C11.8437723,0.01475375 11.7953062,0.046435 11.7601858,0.09014125 C10.2031821,4.53707875 10.0954796,5.52451625 10.3202501,7.40457875 C10.4864865,8.79207875 11.1561152,9.94832875 11.7906234,11.1462038 C12.3333504,11.0624913 12.880526,11.01231 13.4295747,10.9958913 L13.1696838,10.4501413 Z" />
  </g>
</svg>